<?xml version="1.0" encoding="utf-8"?>
<!-- Generator: Adobe Illustrator 25.3.1, SVG Export Plug-In . SVG Version: 6.00 Build 0)  -->
<svg version="1.1" id="ae1ef235-2106-4b79-be0b-fd71d388d487"
	 xmlns="http://www.w3.org/2000/svg" xmlns:xlink="http://www.w3.org/1999/xlink" x="0px" y="0px" viewBox="0 0 80 80"
	 style="enable-background:new 0 0 80 80;" xml:space="preserve">
<style type="text/css">
	.st0{fill:#3E4D9A;}
	.st1{fill:none;}
	.st2{fill:none;stroke:#F8F8FC;stroke-width:2;stroke-miterlimit:10;}
	.st3{enable-background:new    ;}
	.st4{fill:#F8F8FC;}
</style>
<rect id="ffcdb8b9-9dc3-4f0e-b27b-0b2afe4d4277" y="0" class="st0" width="80" height="80"/>
<rect id="b431f59f-77df-429b-b0fa-13b47c74833f" x="24" y="13" class="st1" width="32" height="32"/>
<g id="bd243dc9-c4d1-468f-b834-53cde3c8516f">
	<path id="e88d33b7-6819-432a-868e-84fc8dd249f7" class="st2" d="M34.7,18.3H32l-2.7,2.5v19l2.7,2.5h16l2.7-1.3V20.9L48,18.3h-2.7"
		/>
	<path id="e83f90d5-7cbd-464c-b08d-bf93d0fc34a2" class="st2" d="M45.3,18.9l-2.7-3.2h-5.3l-2.6,3.2L34.7,21h10.7V18.9z"/>
	<line id="a6010072-ce95-4061-8c10-29f63ed4554a" class="st2" x1="33.3" y1="26.3" x2="46.7" y2="26.3"/>
	<line id="ab12c8c4-234f-475b-8b96-e7bf1741298d" class="st2" x1="33.3" y1="31.7" x2="46.7" y2="31.7"/>
	<line id="b9bf9967-9063-48fc-ad89-7c4fafe47a66" class="st2" x1="33.3" y1="37" x2="46.7" y2="37"/>
</g>
<g id="a761f8cd-2730-4a2c-92dd-ca243bec6b4b">
	<g class="st3">
		<path class="st4" d="M20.2,64v-8.4h2.4c0.7,0,1.3,0.2,1.7,0.5s0.6,0.8,0.6,1.4c0,0.5-0.1,0.9-0.4,1.2s-0.6,0.6-1.1,0.8v0
			c0.6,0.1,1,0.3,1.4,0.6s0.5,0.8,0.5,1.4c0,0.7-0.3,1.3-0.8,1.7s-1.2,0.7-2,0.7H20.2z M21.2,56.5v2.7h1c0.5,0,1-0.1,1.3-0.4
			s0.5-0.6,0.5-1.1c0-0.8-0.5-1.2-1.6-1.2H21.2z M21.2,60.1v3h1.3c0.6,0,1-0.1,1.3-0.4s0.5-0.6,0.5-1.1c0-1-0.7-1.5-2-1.5H21.2z"/>
		<path class="st4" d="M31.8,64h-1v-0.9h0c-0.4,0.7-1,1.1-1.9,1.1c-1.4,0-2.1-0.9-2.1-2.6V58h1v3.4c0,1.3,0.5,1.9,1.5,1.9
			c0.5,0,0.9-0.2,1.2-0.5s0.5-0.8,0.5-1.4V58h1V64z"/>
		<path class="st4" d="M38.9,63.5c0,2.2-1.1,3.3-3.2,3.3c-0.7,0-1.4-0.1-1.9-0.4v-1c0.7,0.4,1.3,0.6,1.9,0.6c1.5,0,2.2-0.8,2.2-2.4
			V63h0c-0.5,0.8-1.1,1.1-2.1,1.1c-0.7,0-1.3-0.3-1.8-0.8s-0.7-1.2-0.7-2.1c0-1,0.2-1.8,0.7-2.4s1.2-0.9,2-0.9c0.8,0,1.4,0.3,1.8,1
			h0V58h1V63.5z M37.9,61.3v-0.9c0-0.5-0.2-0.9-0.5-1.2s-0.7-0.5-1.2-0.5c-0.6,0-1.1,0.2-1.4,0.6s-0.5,1-0.5,1.8
			c0,0.7,0.2,1.2,0.5,1.6s0.7,0.6,1.3,0.6c0.5,0,1-0.2,1.3-0.6S37.9,61.9,37.9,61.3z"/>
		<path class="st4" d="M48.6,64h-4.4v-8.4h1v7.5h3.4V64z"/>
		<path class="st4" d="M50.3,56.5c-0.2,0-0.3-0.1-0.4-0.2s-0.2-0.3-0.2-0.4s0.1-0.3,0.2-0.4s0.3-0.2,0.4-0.2c0.2,0,0.3,0.1,0.4,0.2
			s0.2,0.3,0.2,0.4c0,0.2-0.1,0.3-0.2,0.4S50.4,56.5,50.3,56.5z M50.7,64h-1v-6h1V64z"/>
		<path class="st4" d="M52.3,63.8v-1c0.5,0.4,1.1,0.6,1.7,0.6c0.8,0,1.3-0.3,1.3-0.8c0-0.2,0-0.3-0.1-0.4s-0.2-0.2-0.3-0.3
			s-0.3-0.2-0.4-0.2s-0.3-0.1-0.5-0.2c-0.3-0.1-0.5-0.2-0.7-0.3s-0.4-0.2-0.5-0.4s-0.2-0.3-0.3-0.5s-0.1-0.4-0.1-0.6
			c0-0.3,0.1-0.5,0.2-0.7s0.3-0.4,0.5-0.5s0.5-0.3,0.7-0.3s0.6-0.1,0.9-0.1c0.5,0,1,0.1,1.4,0.3v1c-0.4-0.3-0.9-0.4-1.5-0.4
			c-0.2,0-0.3,0-0.5,0.1s-0.3,0.1-0.4,0.2s-0.2,0.2-0.2,0.3s-0.1,0.2-0.1,0.3c0,0.2,0,0.3,0.1,0.4s0.1,0.2,0.2,0.3s0.2,0.2,0.4,0.2
			s0.3,0.1,0.5,0.2c0.3,0.1,0.5,0.2,0.7,0.3s0.4,0.2,0.5,0.4s0.3,0.3,0.3,0.5s0.1,0.4,0.1,0.6c0,0.3-0.1,0.6-0.2,0.8
			s-0.3,0.4-0.5,0.5S55.1,64,54.8,64s-0.6,0.1-0.9,0.1C53.3,64.1,52.8,64,52.3,63.8z"/>
		<path class="st4" d="M60.6,63.9c-0.2,0.1-0.5,0.2-0.9,0.2c-1.1,0-1.6-0.6-1.6-1.8v-3.6h-1V58h1v-1.5l1-0.3V58h1.5v0.8H59v3.4
			c0,0.4,0.1,0.7,0.2,0.9s0.4,0.3,0.7,0.3c0.2,0,0.5-0.1,0.6-0.2V63.9z"/>
	</g>
</g>
</svg>
