<svg xmlns="http://www.w3.org/2000/svg" xmlns:xlink="http://www.w3.org/1999/xlink" width="37.759" height="55.243" viewBox="0 0 37.759 55.243"><defs><style>.a{fill:#f23838;}.b{filter:url(#a);}</style><filter id="a" x="0" y="0" width="37.759" height="55.243" filterUnits="userSpaceOnUse"><feOffset dx="5" input="SourceAlpha"/><feGaussianBlur stdDeviation="1.5" result="b"/><feFlood flood-opacity="0.322"/><feComposite operator="in" in2="b"/><feComposite in="SourceGraphic"/></filter></defs><g transform="translate(0 4.5)"><g class="b" transform="matrix(1, 0, 0, 1, 0, -4.5)"><path class="a" d="M29.038,2H17.349L9,10.221V21.91L23.13,48.243l14.13-26.2V10.221Zm4.367,15.414h-2.7a7.638,7.638,0,0,1-6.294,6.294v2.7H21.845v-2.7a7.638,7.638,0,0,1-6.294-6.294h-2.7V14.845h2.7a7.638,7.638,0,0,1,6.294-6.294v-2.7h2.569v2.7a7.638,7.638,0,0,1,6.294,6.294h2.7Z" transform="translate(-9 2.5)"/></g><path class="a" d="M26.119,12.825A5.433,5.433,0,0,0,22.394,9.1v2.441H19.825V9.1A5.433,5.433,0,0,0,16.1,12.825h2.441v2.569H16.1a5.433,5.433,0,0,0,3.725,3.725V16.679h2.569v2.441a5.433,5.433,0,0,0,3.725-3.725H23.679V12.825Z" transform="translate(-6.98 0.02)"/></g></svg>